<svg width="256" height="256" viewBox="0 0 256 256" fill="none" xmlns="http://www.w3.org/2000/svg">
  <rect width="256" height="256" rx="58" fill="#06101D"/>
  <rect x="28" y="28" width="200" height="200" rx="46" fill="#06101D" stroke="#C8FF73" stroke-width="7"/>
  <path d="M128 55L192 92V166L128 203L64 166V92L128 55Z" fill="url(#body)"/>
  <path d="M128 55L192 92L128 129L64 92L128 55Z" fill="#D9FF94" fill-opacity="0.9"/>
  <path d="M64 92L128 129V203L64 166V92Z" fill="#22A33B"/>
  <path d="M192 92L128 129V203L192 166V92Z" fill="#15803D"/>
  <path d="M128 55L192 92V166L128 203L64 166V92L128 55Z" stroke="#F7FFE7" stroke-opacity="0.62" stroke-width="5" stroke-linejoin="round"/>
  <path d="M142 118C142 110.268 135.732 104 128 104C120.268 104 114 110.268 114 118C114 122.496 116.12 126.513 119.417 129.073V134.302L112.681 154.255C111.889 156.602 113.635 159 116.111 159H139.889C142.365 159 144.111 156.602 143.319 154.255L136.583 134.302V129.073C139.88 126.513 142 122.496 142 118Z" fill="#06101D"/>
  <defs>
    <linearGradient id="body" x1="82" y1="70" x2="169" y2="187" gradientUnits="userSpaceOnUse">
      <stop stop-color="#C8FF73"/>
      <stop offset="1" stop-color="#22C55E"/>
    </linearGradient>
  </defs>
</svg>
